<?xml version="1.0" encoding="iso-8859-1"?>
<!-- Uploaded to: SVG Repo, www.svgrepo.com, Generator: SVG Repo Mixer Tools -->
<!DOCTYPE svg PUBLIC "-//W3C//DTD SVG 1.1//EN" "http://www.w3.org/Graphics/SVG/1.1/DTD/svg11.dtd">
<svg fill="#000000" height="800px" width="800px" version="1.1" id="Capa_1" xmlns="http://www.w3.org/2000/svg" xmlns:xlink="http://www.w3.org/1999/xlink" 
	 viewBox="0 0 450.261 450.261" xml:space="preserve">
<path d="M375.404,428.261L293.601,35.776C288.449,11.063,267.788,0,249.598,0s-38.852,11.063-44.003,35.776L170.18,205.691
	l-18.495-24.464l8.733-6.584l-23.518-38.626l-12.311,9.281L81.245,87.81l-6.389,4.816l43.346,57.49l-12.311,9.282l30.664,33.237
	l8.743-6.591l22.715,30.046l-44.222,212.171h20.307v22h29v-22h153v22h29v-22H375.404z M117.763,160.466l16.9-12.741l15.156,24.892
	l-12.295,9.271L117.763,160.466z M337.619,286.181h-7.895L277.43,35.238h7.826c0.185,0.708,0.358,1.43,0.512,2.171L337.619,286.181z
	 M239.24,226.261h10.8v-8h-10.8v-13.429h10.8v-8h-10.8v-13.429h10.8v-8h-10.8v-13.429h10.8v-8h-10.8v-13.428h10.8v-8h-10.8v-13.429
	h10.8v-8h-10.8V97.689h10.8v-8h-10.8V76.261h10.8v-8h-10.8v-12h21v184h-21V226.261z M239.24,248.261h21v37.92h-21V248.261z
	 M231.24,48.261v237.92h-0.21l-41.851-55.359l40.765-195.583h39.314l52.293,250.942H268.24V48.261H231.24z M221.002,286.181h-43.361
	l9.371-44.961L221.002,286.181z M249.598,8c11.423,0,25.509,5.242,32.644,19.238h-65.287C224.088,13.242,238.174,8,249.598,8z
	 M213.427,37.409c0.154-0.741,0.327-1.462,0.512-2.171h7.832l-38.998,187.11l-6.186-8.183L213.427,37.409z M180.605,232.746
	l-11.137,53.435h-7.892l12.843-61.618L180.605,232.746z M159.909,294.181h179.377l26.278,126.08H133.631L159.909,294.181z
	 M165.098,442.261h-13v-14h13V442.261z M347.098,442.261h-13v-14h13V442.261z"/>
</svg>