<?xml version="1.0" encoding="iso-8859-1"?>
<!-- Uploaded to: SVG Repo, www.svgrepo.com, Generator: SVG Repo Mixer Tools -->
<svg fill="#000000" version="1.1" id="Layer_1" xmlns="http://www.w3.org/2000/svg" xmlns:xlink="http://www.w3.org/1999/xlink" 
	 viewBox="0 0 512 512" xml:space="preserve">
<g>
	<g>
		<path d="M282.128,109.255l-38.813-67.313l-34.722,19.239c-9.5-7.762-19.797-13.526-31.229-17.485V6.495H99.718v38.167
			c-0.499,0.254-1.017,0.516-1.553,0.786c-7.872,3.982-18.206,9.208-26.751,15.734L38.608,41.836L0,109.417l33.403,19.185
			c-0.872,5.59-1.313,11.355-1.313,17.206c0,5.641,0.476,11.415,1.421,17.23L0.286,182.232l39.038,67.592l32.134-19.359
			c8.537,6.511,18.851,11.726,26.709,15.699c0.536,0.271,1.055,0.534,1.555,0.787v40.107h77.646v-47.623h-15.529v32.094h-46.588
			v-33.947l-4.094-2.197c-1.732-0.93-3.797-1.974-5.984-3.08c-8.521-4.309-20.191-10.21-27.813-17.091l-4.276-3.861l-28.225,17.005
			l-23.36-40.448l29.424-16.999l-1.175-5.518c-1.413-6.636-2.13-13.226-2.13-19.587c0-6.746,0.675-13.336,2.006-19.586l1.178-5.534
			l-29.634-17.02L44.28,63.21L73.13,80.222l4.233-3.822c7.623-6.882,19.293-12.784,27.813-17.094
			c2.185-1.105,4.249-2.149,5.98-3.078l4.093-2.197V22.024h46.588V55.24l5.628,1.611c13.349,3.821,24.459,10.018,34.966,19.504
			l4.116,3.716l30.942-17.144l23.383,40.551l-29.612,16.834l1.184,5.56c1.196,5.612,1.728,11.545,1.728,19.238
			c0,5.82-1.124,11.049-2.427,17.103l-0.383,1.785l15.189,3.235l0.376-1.755c1.364-6.341,2.774-12.897,2.774-20.368
			c0-6.384-0.334-11.775-1.06-16.814L282.128,109.255z"/>
	</g>
</g>
<g>
	<g>
		<path d="M476.452,278.356c0-9.837-1.14-19.749-3.394-29.544L512,226.341l-38.882-67.369l-40.215,22.412
			c-14.634-13.53-32.629-23.657-52.617-29.608v-43.822h-78.682v43.838c-18.318,5.568-34.273,15.06-49.47,29.452l-38.028-22.491
			l-29.518,51.831l-8.62-12.876c-10.267,6.873-22.256,10.506-34.668,10.506c-34.412,0-62.408-27.996-62.408-62.408
			c0-34.412,27.996-62.408,62.408-62.408s62.408,27.996,62.408,62.408c0,2.318-0.128,4.654-0.381,6.942l15.435,1.704
			c0.315-2.851,0.474-5.76,0.474-8.646c0-42.975-34.963-77.938-77.938-77.938s-77.938,34.963-77.938,77.938
			s34.963,77.938,77.938,77.938c15.477,0,30.431-4.528,43.251-13.094l-8.932,15.684l39.006,22.344
			c-2.205,8.35-4.215,17.676-4.215,28.028h15.529c0-10.353,2.663-20.408,5.239-29.703l1.609-5.715l-36.015-20.674l23.022-40.437
			l34.809,20.575l4.258-4.336c16.015-16.305,32.669-26.217,52.41-31.195l5.866-1.479v-40.259h47.623v40.259l5.866,1.479
			c21.6,5.447,40.785,16.234,55.48,31.195l4.148,4.224l37.063-20.657l23.472,40.669l-35.784,20.649l1.605,5.793
			c2.865,10.338,4.316,20.857,4.316,31.261c0,10.103-1.495,20.62-4.442,31.26l-1.602,5.78l35.569,20.629l-23.735,40.671
			l-36.426-20.658l-4.18,4.256c-14.485,14.747-34.189,25.825-55.485,31.194l-5.866,1.479v42.136h-38.306v15.529h53.835v-45.699
			c19.976-5.948,37.961-16.063,52.589-29.578l39.521,22.413l39.314-67.367l-38.772-22.487
			C475.272,297.908,476.452,287.988,476.452,278.356z"/>
	</g>
</g>
<g>
	<g>
		<path d="M344.02,177.238c-55.874,0-101.329,45.634-101.329,101.539h15.529c0-47.623,38.497-86.01,85.807-86.01
			s85.807,38.28,85.807,85.59s-38.161,85.8-85.784,85.8v15.529c55.906-0.001,101.315-45.352,101.315-101.225
			C445.365,222.589,399.894,177.238,344.02,177.238z"/>
	</g>
</g>
<g>
	<g>
		<path d="M141.298,91.26c-30.077,0-54.547,24.47-54.547,54.547s24.47,54.546,54.547,54.546s54.546-24.469,54.546-54.546
			S171.375,91.26,141.298,91.26z M141.298,184.824c-21.514,0-39.018-17.503-39.018-39.017c0-21.514,17.504-39.018,39.018-39.018
			s39.017,17.504,39.017,39.018C180.315,167.321,162.812,184.824,141.298,184.824z"/>
	</g>
</g>
<g>
	<g>
		<path d="M344.02,200.418c-42.975,0-77.938,34.963-77.938,77.938c0,12.421,2.996,24.783,8.665,35.749l13.795-7.132
			c-4.599-8.896-6.931-18.524-6.931-28.616c0-34.412,27.996-62.408,62.408-62.408s62.408,27.996,62.408,62.408
			c0,34.412-27.996,62.408-62.408,62.408c-4.684,0-9.35-0.52-13.869-1.545l-3.434,15.145c5.644,1.28,11.466,1.929,17.303,1.929
			c42.975,0,77.938-34.963,77.938-77.938C421.958,235.381,386.995,200.418,344.02,200.418z"/>
	</g>
</g>
<g>
	<g>
		<rect x="302.636" y="264.279" width="78.682" height="15.529"/>
	</g>
</g>
<g>
	<g>
		<rect x="318.166" y="287.056" width="47.623" height="15.529"/>
	</g>
</g>
<g>
	<g>
		<rect x="108.002" y="139.009" width="15.529" height="15.529"/>
	</g>
</g>
<g>
	<g>
		<rect x="131.813" y="139.009" width="15.529" height="15.529"/>
	</g>
</g>
<g>
	<g>
		<rect x="154.59" y="139.009" width="15.529" height="15.529"/>
	</g>
</g>
<g>
	<g>
		<path d="M297.205,395.311c0-2.883-0.171-5.77-0.518-8.723l32.662-18.858l-31.085-53.841l-34.107,18.87
			c-5.206-3.565-11.175-6.472-16.391-8.727v-36.973h-63.153v37.127c-4.503,2.221-8.919,4.994-13.336,8.375l-31.82-18.912
			l-30.67,54.133l32.876,18.846c-0.296,2.808-0.445,5.712-0.445,8.683c0,2.806,0.183,5.695,0.557,8.735l-32.621,18.851
			l31.273,54.134l30.904-18.922c4.396,3.359,8.794,6.117,13.282,8.329v39.068h63.153V466.59c5.202-2.249,11.152-5.146,16.349-8.697
			l33.41,18.878l31.525-53.838l-32.48-18.855C296.936,401.365,297.205,398.378,297.205,395.311z M307.775,428.535l-15.923,27.192
			l-29.27-16.539l-4.132,3.536c-6.447,5.514-17.651,10-21.332,11.474l-4.878,1.954v33.825h-32.094v-33.825l-4.878-1.954
			c-6.134-2.457-12.109-6.21-18.264-11.474l-4.288-3.668l-26.807,16.412l-15.537-26.895l28.519-16.481l-0.994-5.39
			c-0.771-4.182-1.146-7.908-1.146-11.391c0-4.084,0.322-7.809,0.982-11.39l0.999-5.41l-28.813-16.517l15.237-26.896l27.625,16.419
			l4.229-3.617c6.161-5.27,12.133-9.024,18.256-11.474l4.878-1.954v-31.883h32.094v31.883l4.878,1.954
			c3.681,1.473,14.882,5.957,21.332,11.474l4.094,3.5l29.898-16.542l15.696,27.187l-28.548,16.482l0.995,5.392
			c0.734,3.982,1.092,7.708,1.092,11.391c0,4.031-0.636,8.02-1.258,11.391l-0.992,5.378L307.775,428.535z"/>
	</g>
</g>
<g>
	<g>
		<path d="M219.267,348.561c-25.778,0-46.75,20.972-46.75,46.75c0,25.778,20.972,46.75,46.75,46.75s46.75-20.972,46.75-46.75
			C266.017,369.533,245.046,348.561,219.267,348.561z M219.267,426.532c-17.215,0-31.22-14.005-31.22-31.22
			c0-17.215,14.005-31.22,31.22-31.22c17.215,0,31.22,14.005,31.22,31.22C250.488,412.527,236.483,426.532,219.267,426.532z"/>
	</g>
</g>
<g>
	<g>
		<path d="M219.267,371.953c-12.88,0-23.359,10.479-23.359,23.359c0,12.88,10.479,23.359,23.359,23.359
			c12.88,0,23.359-10.479,23.359-23.359C242.627,382.432,232.147,371.953,219.267,371.953z M219.267,403.141
			c-4.317,0-7.83-3.513-7.83-7.83s3.513-7.83,7.83-7.83c4.317,0,7.83,3.513,7.83,7.83S223.585,403.141,219.267,403.141z"/>
	</g>
</g>
</svg>