<?xml version="1.0" encoding="iso-8859-1"?>
<!-- Uploaded to: SVG Repo, www.svgrepo.com, Generator: SVG Repo Mixer Tools -->
<svg version="1.1" id="Layer_1" xmlns="http://www.w3.org/2000/svg" viewBox="0 0 262.704 262.704"
    xml:space="preserve">
<g>
	<g>
		<g>
			<path style="fill:#4EFFBB;" d="M200.391,74.121c-16.305,0-29.605,12.714-30.251,28.569h-33.294
				c-3.574-12.53-15.283-21.758-29.169-21.758s-25.592,9.227-29.166,21.758H46.268V86.208c0-3.865-3.191-6.998-7.127-6.998
				s-7.127,3.133-7.127,6.998v16.483H7.948v13.998h24.064v44.696H7.948v13.998H32.05c0.005,0.126,0.025,0.246,0.038,0.37
				c1.268,15.278,14.313,27.334,30.191,27.334c16.006,0,29.123-12.251,30.21-27.701h31.245v0.69h0.044
				c0.737,15.776,14.001,28.4,30.246,28.4c16.483,0,29.909-12.991,30.281-29.09h32.149v19.093c0,3.865,3.191,7.001,7.127,7.001
				s7.127-3.133,7.127-7.001v-19.093h31.993v-13.998h-31.99v-44.699h31.993v-13.998h-32.056
				C230.001,86.832,216.698,74.121,200.391,74.121z M62.282,189.088c-8.137,0-14.806-5.993-15.85-13.705H78.13
				C77.089,183.096,70.42,189.088,62.282,189.088z M46.268,161.385v-44.696H77.48l0.696,44.696H46.268z M107.674,94.931
				c5.867,0,10.956,3.136,13.757,7.759H93.919C96.721,98.067,101.81,94.931,107.674,94.931z M123.738,161.385H92.435l-0.696-44.696
				h31.998C123.738,116.689,123.738,161.385,123.738,161.385z M154.027,190.474c-8.619,0-15.62-6.716-15.992-15.091h31.985
				C169.647,183.759,162.646,190.474,154.027,190.474z M170.088,161.385h-32.094v-44.696h32.097v44.696H170.088z M200.391,88.119
				c8.441,0,15.305,6.445,15.94,14.571h-31.875C185.091,94.564,191.955,88.119,200.391,88.119z M216.454,161.385h-32.111v-44.696
				h32.111L216.454,161.385L216.454,161.385z"/>
			<rect x="7.948" y="57.655" style="fill:#4EFFBB;" width="254.755" height="13.998"/>
			<rect x="7.948" y="206.417" style="fill:#4EFFBB;" width="254.755" height="13.998"/>
		</g>
		<g>
			<g>
				<path style="fill:#222051;" d="M192.443,58.756c-16.305,0-29.605,12.711-30.251,28.569h-33.294
					c-3.574-12.53-15.283-21.758-29.169-21.758s-25.592,9.227-29.166,21.758H38.32V70.842c0-3.865-3.191-6.998-7.127-6.998
					s-7.129,3.133-7.129,6.998v16.483H0v13.998h24.064v44.696H0v13.998h24.102c0.005,0.126,0.025,0.246,0.038,0.37
					c1.268,15.278,14.313,27.334,30.191,27.334c16.006,0,29.123-12.251,30.21-27.701h31.245v0.69h0.044
					c0.737,15.776,14.001,28.4,30.246,28.4c16.483,0,29.909-12.991,30.281-29.09h32.146v19.093c0,3.865,3.191,6.998,7.129,6.998
					c3.936,0,7.127-3.133,7.127-6.998v-19.092h31.993v-13.998h-31.99v-44.699h31.993V87.325h-32.056
					C222.053,71.467,208.75,58.756,192.443,58.756z M54.334,173.721c-8.137,0-14.806-5.993-15.85-13.705h31.7
					C69.141,167.731,62.471,173.721,54.334,173.721z M38.32,146.019v-44.696h31.212l0.696,44.696H38.32z M99.728,79.563
					c5.867,0,10.956,3.136,13.757,7.762H85.971C88.773,82.702,93.862,79.563,99.728,79.563z M115.789,146.019H84.487l-0.696-44.696
					h31.998V146.019z M146.079,175.109c-8.619,0-15.62-6.716-15.992-15.091h31.985C161.699,168.393,154.698,175.109,146.079,175.109
					z M162.139,146.019h-32.094v-44.696h32.094C162.139,101.323,162.139,146.019,162.139,146.019z M192.443,72.751
					c8.441,0,15.305,6.445,15.94,14.571h-31.875C177.143,79.196,184.007,72.751,192.443,72.751z M208.506,146.019h-32.111v-44.696
					h32.111L208.506,146.019L208.506,146.019z"/>
			</g>
			<g>
				<path style="fill:#222051;" d="M45.98,42.289H0v13.998h45.98c3.865,0,6.998-3.133,6.998-6.998l0,0
					C52.981,45.423,49.845,42.289,45.98,42.289z"/>
				<path style="fill:#222051;" d="M116.123,49.287L116.123,49.287c0,3.865,3.133,6.998,6.998,6.998h131.631V42.289H123.121
					C119.257,42.289,116.123,45.423,116.123,49.287z"/>
				<path style="fill:#222051;" d="M100.232,42.289h-31.36c-3.865,0-6.998,3.133-6.998,6.998l0,0c0,3.865,3.133,6.998,6.998,6.998
					h31.363c3.865,0,6.998-3.133,6.998-6.998l0,0C107.233,45.423,104.097,42.289,100.232,42.289z"/>
			</g>
			<g>
				<rect y="191.052" style="fill:#222051;" width="254.755" height="13.998"/>
			</g>
		</g>
	</g>
</g>
</svg>