<?xml version="1.0" encoding="iso-8859-1"?>
<!-- Uploaded to: SVG Repo, www.svgrepo.com, Generator: SVG Repo Mixer Tools -->
<svg fill="#000000" height="800px" width="800px" version="1.1" id="Capa_1" xmlns="http://www.w3.org/2000/svg" xmlns:xlink="http://www.w3.org/1999/xlink" 
	 viewBox="0 0 59.977 59.977" xml:space="preserve">
<g>
	<path d="M23.942,40.195c-0.391-0.391-1.023-0.391-1.414,0l-8.021,8.021l-0.708-0.708l8.9-8.9c0.391-0.391,0.391-1.023,0-1.414
		s-1.023-0.391-1.414,0l-8.9,8.9l-0.707-0.707l8.021-8.021c0.391-0.391,0.391-1.023,0-1.414s-1.023-0.391-1.414,0l-8.021,8.021
		l-0.707-0.707c-0.391-0.391-1.023-0.391-1.414,0s-0.391,1.023,0,1.414l0.707,0.707l-0.707,0.707c-0.391,0.391-0.391,1.023,0,1.414
		c0.195,0.195,0.451,0.293,0.707,0.293s0.512-0.098,0.707-0.293l0.707-0.707l0.707,0.707l-0.707,0.707
		c-0.391,0.391-0.391,1.023,0,1.414c0.195,0.195,0.451,0.293,0.707,0.293s0.512-0.098,0.707-0.293l0.707-0.707l0.708,0.708
		l-0.707,0.707c-0.391,0.391-0.391,1.023,0,1.414c0.195,0.195,0.451,0.293,0.707,0.293s0.512-0.098,0.707-0.293l0.707-0.707
		l0.707,0.707c0.195,0.195,0.451,0.293,0.707,0.293s0.512-0.098,0.707-0.293c0.391-0.391,0.391-1.023,0-1.414l-0.707-0.707
		l8.021-8.021C24.332,41.218,24.332,40.585,23.942,40.195z"/>
	<path d="M18.492,32.902c-4.687,0-8.5,3.813-8.5,8.5h2c0-3.584,2.916-6.5,6.5-6.5s6.5,2.916,6.5,6.5s-2.916,6.5-6.5,6.5v2
		c4.687,0,8.5-3.813,8.5-8.5S23.179,32.902,18.492,32.902z"/>
	<path d="M58.825,11.017c1.696-2.295,1.526-5.545-0.552-7.622l-1.6-1.601c-1.108-1.108-2.582-1.719-4.15-1.719
		c-1.273,0-2.481,0.409-3.485,1.154l-0.757-0.757c-0.391-0.391-1.023-0.391-1.414,0s-0.391,1.023,0,1.414l0.707,0.707L46.16,4.009
		l-0.707-0.707c-0.391-0.391-1.024-0.391-1.415,0c-0.391,0.39-0.391,1.023,0,1.414l0.708,0.708L44.74,5.428
		c-0.499,0.499-0.78,1.188-0.771,1.888c0.008,0.649,0.264,1.245,0.72,1.68c0.134,0.127,0.155,0.277,0.156,0.355
		c0.001,0.079-0.017,0.23-0.146,0.36L31.368,23.043l-0.441-0.441l-0.219-0.166c-6.698-3.741-19.936,1.937-25.59,7.591
		c-6.823,6.823-6.823,17.925,0,24.748c3.305,3.306,7.7,5.126,12.375,5.126s9.069-1.82,12.374-5.126
		c5.654-5.654,11.333-18.89,7.591-25.589l-0.453-0.466l13.352-13.352c0.128-0.127,0.276-0.146,0.354-0.146s0.226,0.02,0.354,0.146
		c0.975,0.975,2.561,0.975,3.535,0l0.046-0.046l0.708,0.707c0.195,0.195,0.451,0.293,0.707,0.293s0.512-0.098,0.707-0.293
		c0.391-0.391,0.391-1.024,0-1.414l-0.708-0.707l1.415-1.415l0.707,0.707c0.195,0.195,0.451,0.293,0.707,0.293
		s0.512-0.098,0.707-0.293c0.391-0.391,0.391-1.023,0-1.414L58.825,11.017z M35.61,30.115l0.165,0.165
		c3.125,5.882-2.254,18.014-7.323,23.082c-2.928,2.928-6.82,4.54-10.96,4.54s-8.033-1.612-10.96-4.54
		c-6.043-6.043-6.043-15.877,0-21.92c4.027-4.026,12.511-8.248,18.778-8.248c1.622,0,3.096,0.283,4.305,0.925l0.338,0.339
		l-3.063,3.063c-0.492,0.491-0.758,1.171-0.73,1.865c0.028,0.704,0.355,1.373,0.896,1.834c0.629,0.535,1.217,1.133,1.746,1.774
		c0.457,0.556,1.127,0.895,1.84,0.93c0.041,0.002,0.081,0.003,0.121,0.003c0.069,0,0.136-0.015,0.204-0.02
		c0.084-0.007,0.167-0.01,0.249-0.025c0.076-0.014,0.148-0.039,0.221-0.06c0.087-0.025,0.176-0.045,0.26-0.079
		c0.079-0.032,0.152-0.077,0.227-0.117c0.071-0.038,0.146-0.069,0.213-0.114c0.14-0.092,0.272-0.198,0.392-0.318L35.61,30.115z
		 M52.477,13.954c-0.945-0.945-2.59-0.945-3.535,0L31.115,31.781c-0.129,0.129-0.274,0.158-0.376,0.146
		c-0.088-0.004-0.256-0.036-0.393-0.202c-0.105-0.128-0.223-0.244-0.332-0.369L52.36,8.92c0.39-0.392,0.388-1.024-0.003-1.415
		c-0.392-0.39-1.023-0.386-1.415,0.003L28.607,29.933c-0.086-0.077-0.166-0.162-0.254-0.237c-0.161-0.137-0.19-0.304-0.194-0.391
		c-0.004-0.099,0.018-0.243,0.146-0.371l17.809-17.81c0.481-0.48,0.741-1.119,0.732-1.8c-0.009-0.68-0.286-1.313-0.779-1.78
		c-0.063-0.061-0.097-0.146-0.098-0.255c-0.002-0.159,0.069-0.331,0.186-0.448l0.712-0.712c0,0,0,0,0,0s0,0,0,0l2.921-2.922
		c0.73-0.73,1.702-1.133,2.735-1.133c1.034,0,2.006,0.402,2.736,1.133l1.6,1.601c0.73,0.73,1.133,1.702,1.133,2.735
		s-0.402,2.005-1.133,2.735l-3.675,3.675C52.989,14.15,52.673,14.15,52.477,13.954z"/>
</g>
</svg>