<?xml version="1.0" encoding="iso-8859-1"?>
<!-- Uploaded to: SVG Repo, www.svgrepo.com, Generator: SVG Repo Mixer Tools -->
<svg fill="#000000" height="800px" width="800px" version="1.1" id="Layer_1" xmlns="http://www.w3.org/2000/svg" xmlns:xlink="http://www.w3.org/1999/xlink" 
	 viewBox="0 0 512 512" xml:space="preserve">
<g>
	<g>
		<g>
			<path d="M497.17,85.737c-2.767-5.682-9.499-8.342-15.321-6.063c-0.051,0.02-0.101,0.041-0.153,0.062l-18.101,7.532
				c-3.998,1.663-5.89,6.254-4.227,10.252c1.664,3.998,6.251,5.891,10.253,4.226l14.707-6.12c2.144,6.17,1.927,12.741-0.689,18.444
				c-14.269,31.12-32.451,45.284-42.363,51.077l-21.941-42.473l22.479-9.356c3.998-1.664,5.89-6.254,4.226-10.252
				c-1.663-3.998-6.255-5.891-10.252-4.227l-23.675,9.853l-19.019-36.818l59.603-25.688c3.735-1.314,6.563-4.335,7.619-8.18
				c1.22-4.444-0.024-9.251-3.33-12.859l-7.151-7.807c-0.704-0.767-1.552-1.388-2.499-1.824
				c-0.907-0.418-22.559-10.296-50.654-14.083c-38.172-5.144-69.822,3.606-91.525,25.308c-10.95,10.949-17.552,24.477-19.094,39.122
				l-8.663,82.288c-4.055,20.682-18.524,45.417-36.084,61.655l-97.241,89.862c-3.18,2.939-3.376,7.9-0.437,11.081
				c2.939,3.179,7.898,3.375,11.08,0.437l97.243-89.864c20.227-18.704,36.282-46.393,40.902-70.538
				c0.042-0.216,0.073-0.434,0.097-0.653l8.698-82.626c1.16-11.033,6.205-21.295,14.586-29.675
				c40.995-40.992,112.387-13.201,123.156-8.666l3.728,4.072l-63.963,27.567c-1.997,0.86-3.547,2.512-4.279,4.56
				c-0.733,2.047-0.582,4.307,0.416,6.239l26.052,50.433c0.042,0.088,0.075,0.179,0.12,0.266l29.311,56.93
				c0.191,0.371,0.414,0.716,0.653,1.043l2.847,5.511c1.959,3.775,2.318,7.838,0.981,11.143c-0.701,1.737-2.206,4.033-5.39,5.103
				c-19.366,6.509-49.068,16.67-70.573,24.046c-20.411,7.001-41.759,23.609-53.831,36.931L101.701,485.298
				c-6.197,6.838-15.423,10.747-25.979,11.006c-13.044,0.325-26.182-4.844-35.152-13.815c-9.114-9.113-14.613-23.098-14.351-36.497
				c0.206-10.537,3.941-19.689,10.516-25.769l95.773-88.506c3.18-2.939,3.376-7.9,0.437-11.081c-2.94-3.18-7.899-3.376-11.08-0.437
				l-95.775,88.509c-9.737,9.004-15.26,22.136-15.55,36.977c-0.348,17.781,6.732,35.684,18.939,47.892
				c11.601,11.6,28.367,18.423,45.118,18.422c0.504,0,1.008-0.006,1.51-0.018c14.889-0.367,28.106-6.103,37.182-16.121
				l203.775-222.288c12.719-14.034,32.181-27.465,47.329-32.662c21.485-7.369,51.153-17.518,70.481-24.015
				c6.896-2.318,12.199-7.322,14.934-14.094c2.985-7.387,2.485-15.991-1.334-23.69c12.256-6.961,33.255-23.258,49.418-58.506
				C502.905,109.679,502.641,96.969,497.17,85.737z"/>
			<path d="M402.254,154.349l-14.397-28.759c-0.017-0.038-0.027-0.077-0.044-0.115c-0.121-0.273-0.258-0.532-0.406-0.783
				l-7.455-14.892c-3.126-6.245-9.409-10.126-16.397-10.126c-2.82,0-5.648,0.669-8.182,1.934l-32.712,16.338
				c-4.382,2.189-7.649,5.954-9.199,10.601c-1.549,4.647-1.195,9.619,0.997,14.001l29.944,59.816
				c3.127,6.246,9.41,10.126,16.397,10.126c2.82,0,5.649-0.669,8.181-1.934l32.715-16.338c4.381-2.189,7.648-5.954,9.198-10.601
				c1.548-4.647,1.194-9.619-0.998-14l-7.641-15.266c0,0,0,0,0-0.001L402.254,154.349z M328.485,135.526
				c-0.428-0.853-0.274-1.633-0.145-2.022c0.13-0.388,0.475-1.104,1.33-1.531l32.712-16.338c0.373-0.187,0.768-0.281,1.175-0.281
				c0.794,0,1.834,0.385,2.374,1.464l4.173,8.339l-37.411,18.775L328.485,135.526z M347.223,172.96l-7.51-15.004l37.41-18.775
				l7.51,15.004L347.223,172.96z M396.018,178.658c-0.13,0.389-0.475,1.104-1.328,1.529l-32.715,16.338
				c-0.373,0.186-0.767,0.281-1.174,0.281c-0.794,0-1.833-0.385-2.373-1.465l-4.186-8.361l37.411-18.775l4.219,8.43
				C396.3,177.489,396.146,178.269,396.018,178.658z"/>
			<path d="M54.401,425.75c-11.425,11.426-11.425,30.015,0.001,41.44c5.712,5.712,13.217,8.569,20.72,8.569
				c7.504,0,15.008-2.856,20.72-8.569c0.001,0,0.001,0,0.001,0c11.425-11.426,11.425-30.015-0.001-41.441
				C84.418,414.325,65.828,414.325,54.401,425.75z M84.755,456.101c-5.312,5.31-13.955,5.311-19.264,0
				c-5.311-5.311-5.311-13.953-0.001-19.263c2.656-2.655,6.144-3.983,9.633-3.983c3.488,0,6.977,1.329,9.632,3.983
				C90.065,442.148,90.065,450.79,84.755,456.101z"/>
			<path d="M134.52,388.277c4.624,4.623,10.771,7.17,17.309,7.17s12.685-2.547,17.309-7.17l115.778-115.779
				c4.623-4.623,7.169-10.77,7.169-17.308c0-6.538-2.546-12.685-7.17-17.309c-4.624-4.623-10.771-7.169-17.309-7.169
				c-6.538,0-12.685,2.547-17.309,7.17L134.52,353.66C124.976,363.204,124.976,378.733,134.52,388.277z M145.609,364.748
				l115.778-115.779c1.661-1.661,3.87-2.576,6.219-2.576c2.35,0,4.559,0.916,6.22,2.576c1.662,1.661,2.577,3.87,2.577,6.22
				c0,2.35-0.915,4.558-2.577,6.22L158.049,377.189c-1.661,1.661-3.87,2.576-6.219,2.576s-4.558-0.915-6.219-2.576
				C142.179,373.758,142.179,368.178,145.609,364.748z"/>
		</g>
	</g>
</g>
</svg>